<mxfile host="app.diagrams.net" agent="Mozilla/5.0 (Macintosh; Intel Mac OS X 10_15_7) AppleWebKit/537.36 (KHTML, like Gecko) Chrome/134.0.0.0 Safari/537.36" version="26.1.1">
  <diagram id="1dmdvkjvO27DFH8zVHGM" name="Page-1">
    <mxGraphModel dx="1434" dy="785" grid="1" gridSize="10" guides="1" tooltips="1" connect="1" arrows="1" fold="1" page="1" pageScale="1" pageWidth="850" pageHeight="1100" math="0" shadow="0">
      <root>
        <mxCell id="0" />
        <mxCell id="1" parent="0" />
        <mxCell id="gqQbfOOeW71_iP61xKSS-7" value="HTTP request" style="edgeStyle=orthogonalEdgeStyle;rounded=0;orthogonalLoop=1;jettySize=auto;html=1;" edge="1" parent="1" source="gqQbfOOeW71_iP61xKSS-1" target="gqQbfOOeW71_iP61xKSS-2">
          <mxGeometry relative="1" as="geometry" />
        </mxCell>
        <mxCell id="gqQbfOOeW71_iP61xKSS-1" value="Client browser" style="rounded=0;whiteSpace=wrap;html=1;" vertex="1" parent="1">
          <mxGeometry x="200" y="160" width="120" height="60" as="geometry" />
        </mxCell>
        <mxCell id="gqQbfOOeW71_iP61xKSS-2" value="Front-End&lt;div&gt;Next.js&lt;/div&gt;" style="rounded=0;whiteSpace=wrap;html=1;" vertex="1" parent="1">
          <mxGeometry x="200" y="260" width="120" height="60" as="geometry" />
        </mxCell>
        <mxCell id="gqQbfOOeW71_iP61xKSS-14" value="&lt;div&gt;&lt;br&gt;&lt;/div&gt;&lt;div&gt;&lt;br&gt;&lt;/div&gt;&lt;div&gt;&lt;br&gt;&lt;/div&gt;&lt;div&gt;&lt;br&gt;&lt;/div&gt;&lt;div&gt;&lt;br&gt;&lt;/div&gt;&lt;div&gt;Docker container&lt;/div&gt;" style="rounded=0;whiteSpace=wrap;html=1;" vertex="1" parent="1">
          <mxGeometry x="190" y="370" width="340" height="100" as="geometry" />
        </mxCell>
        <mxCell id="gqQbfOOeW71_iP61xKSS-12" value="API testing" style="edgeStyle=orthogonalEdgeStyle;rounded=0;orthogonalLoop=1;jettySize=auto;html=1;" edge="1" parent="1" source="gqQbfOOeW71_iP61xKSS-3" target="gqQbfOOeW71_iP61xKSS-5">
          <mxGeometry relative="1" as="geometry" />
        </mxCell>
        <mxCell id="gqQbfOOeW71_iP61xKSS-13" value="DB manager" style="edgeStyle=orthogonalEdgeStyle;rounded=0;orthogonalLoop=1;jettySize=auto;html=1;" edge="1" parent="1" source="gqQbfOOeW71_iP61xKSS-4" target="gqQbfOOeW71_iP61xKSS-6">
          <mxGeometry relative="1" as="geometry" />
        </mxCell>
        <mxCell id="gqQbfOOeW71_iP61xKSS-20" value="DB&amp;nbsp;&lt;div&gt;queries&lt;/div&gt;" style="edgeStyle=orthogonalEdgeStyle;rounded=0;orthogonalLoop=1;jettySize=auto;html=1;exitX=1;exitY=0.25;exitDx=0;exitDy=0;entryX=0;entryY=0.25;entryDx=0;entryDy=0;" edge="1" parent="1" source="gqQbfOOeW71_iP61xKSS-3" target="gqQbfOOeW71_iP61xKSS-4">
          <mxGeometry relative="1" as="geometry" />
        </mxCell>
        <mxCell id="gqQbfOOeW71_iP61xKSS-3" value="Back-End&lt;div&gt;Golang&lt;/div&gt;" style="rounded=0;whiteSpace=wrap;html=1;" vertex="1" parent="1">
          <mxGeometry x="200" y="380" width="120" height="60" as="geometry" />
        </mxCell>
        <mxCell id="gqQbfOOeW71_iP61xKSS-21" value="Response" style="edgeStyle=orthogonalEdgeStyle;rounded=0;orthogonalLoop=1;jettySize=auto;html=1;exitX=0;exitY=0.75;exitDx=0;exitDy=0;entryX=1;entryY=0.75;entryDx=0;entryDy=0;" edge="1" parent="1" source="gqQbfOOeW71_iP61xKSS-4" target="gqQbfOOeW71_iP61xKSS-3">
          <mxGeometry relative="1" as="geometry" />
        </mxCell>
        <mxCell id="gqQbfOOeW71_iP61xKSS-4" value="&lt;div&gt;Database&lt;/div&gt;PostgreSQL" style="rounded=0;whiteSpace=wrap;html=1;" vertex="1" parent="1">
          <mxGeometry x="400" y="380" width="120" height="60" as="geometry" />
        </mxCell>
        <mxCell id="gqQbfOOeW71_iP61xKSS-5" value="&lt;div&gt;API Testing&lt;/div&gt;Postman" style="rounded=0;whiteSpace=wrap;html=1;" vertex="1" parent="1">
          <mxGeometry x="200" y="490" width="120" height="60" as="geometry" />
        </mxCell>
        <mxCell id="gqQbfOOeW71_iP61xKSS-6" value="Database Management&lt;div&gt;DBeaver&lt;/div&gt;" style="rounded=0;whiteSpace=wrap;html=1;" vertex="1" parent="1">
          <mxGeometry x="400" y="490" width="120" height="60" as="geometry" />
        </mxCell>
        <mxCell id="gqQbfOOeW71_iP61xKSS-8" value="RestAPI&amp;nbsp;&lt;div&gt;calls&lt;/div&gt;" style="edgeStyle=orthogonalEdgeStyle;rounded=0;orthogonalLoop=1;jettySize=auto;html=1;" edge="1" parent="1" source="gqQbfOOeW71_iP61xKSS-2" target="gqQbfOOeW71_iP61xKSS-3">
          <mxGeometry relative="1" as="geometry" />
        </mxCell>
      </root>
    </mxGraphModel>
  </diagram>
</mxfile>
